<svg xmlns="http://www.w3.org/2000/svg" viewBox="0 0 200 200" role="img" aria-labelledby="title desc" shape-rendering="crispEdges">
  <title id="title">DexHoldem poker hand logo</title>
  <desc id="desc">Pixel-art robotic hand holding two playing cards.</desc>
  <rect width="200" height="200" fill="#342337"/>
  <rect x="0" y="0" width="200" height="18" fill="#4a2a37"/>
  <rect x="0" y="18" width="22" height="182" fill="#211725"/>
  <rect x="178" y="0" width="22" height="200" fill="#4b2f35"/>
  <rect x="13" y="34" width="24" height="70" fill="#5a342f"/>
  <rect x="160" y="24" width="23" height="78" fill="#644037"/>
  <rect x="150" y="45" width="40" height="10" fill="#7d5748"/>
  <rect x="9" y="151" width="58" height="14" fill="#6a4635"/>
  <rect x="16" y="146" width="46" height="8" fill="#916247"/>
  <rect x="31" y="156" width="15" height="6" fill="#c0935a"/>
  <rect x="24" y="132" width="24" height="10" fill="#604030"/>
  <g transform="translate(44 10) rotate(1)">
    <polygon points="0,0 54,4 51,92 0,89" fill="#f9f5df" stroke="#141822" stroke-width="5"/>
    <polygon points="10,17 17,10 24,17 17,24" fill="#b62d2d"/>
    <text x="9" y="16" fill="#b62d2d" font-family="Georgia, serif" font-size="20" font-weight="700">A</text>
    <polygon points="32,71 39,64 46,71 39,78" fill="#b62d2d"/>
  </g>
  <g transform="translate(81 13) rotate(12)">
    <polygon points="0,0 58,3 56,91 1,88" fill="#fbf8e6" stroke="#141822" stroke-width="5"/>
    <text x="12" y="22" fill="#141822" font-family="Georgia, serif" font-size="21" font-weight="700">K</text>
    <path d="M24 45 C18 39 20 31 28 29 C31 19 43 19 46 29 C54 31 56 39 50 45 C46 50 39 48 37 43 C35 48 28 50 24 45 Z" fill="#111820"/>
    <polygon points="37,48 31,62 43,62" fill="#111820"/>
  </g>
  <g stroke="#10151d" stroke-width="5" stroke-linejoin="round" stroke-linecap="round">
    <path d="M92 87 L77 106 L76 132 L104 150 L133 143 L143 122 L132 101 Z" fill="#333943"/>
    <path d="M77 109 L56 112 L53 128 L78 128 Z" fill="#343a45"/>
    <path d="M83 94 L68 79 L56 82 L72 106 Z" fill="#3d434e"/>
    <path d="M101 83 L101 61 L89 55 L89 91 Z" fill="#454b56"/>
    <path d="M116 88 L126 68 L116 60 L103 94 Z" fill="#3c424d"/>
    <path d="M130 103 L147 89 L141 78 L119 99 Z" fill="#3b414c"/>
    <path d="M136 124 L158 117 L156 104 L130 111 Z" fill="#343a45"/>
  </g>
  <g fill="#d8c49f" stroke="#1a1f28" stroke-width="3">
    <circle cx="76" cy="109" r="4"/>
    <circle cx="91" cy="94" r="4"/>
    <circle cx="101" cy="85" r="4"/>
    <circle cx="116" cy="91" r="4"/>
    <circle cx="130" cy="105" r="4"/>
    <circle cx="136" cy="124" r="4"/>
    <circle cx="103" cy="145" r="4"/>
    <circle cx="122" cy="142" r="4"/>
  </g>
  <g fill="#818896">
    <rect x="85" y="116" width="39" height="6"/>
    <rect x="83" y="128" width="44" height="6"/>
    <rect x="91" y="140" width="28" height="6"/>
  </g>
  <rect x="0" y="0" width="200" height="200" fill="none" stroke="#1a1119" stroke-width="6"/>
</svg>
